<svg xmlns="http://www.w3.org/2000/svg" width="15.889" height="15.885" viewBox="0 0 15.889 15.885">
  <path id="instagram" d="M7.871,35.695a4.073,4.073,0,1,0,4.073,4.073A4.066,4.066,0,0,0,7.871,35.695Zm0,6.721a2.648,2.648,0,1,1,2.648-2.648,2.653,2.653,0,0,1-2.648,2.648Zm5.189-6.887a.95.95,0,1,1-.95-.95A.948.948,0,0,1,13.06,35.528Zm2.7.964a4.7,4.7,0,0,0-1.283-3.328,4.732,4.732,0,0,0-3.328-1.283c-1.312-.074-5.242-.074-6.554,0a4.725,4.725,0,0,0-3.328,1.28A4.716,4.716,0,0,0-.019,36.489c-.074,1.312-.074,5.242,0,6.554a4.7,4.7,0,0,0,1.283,3.328,4.738,4.738,0,0,0,3.328,1.283c1.312.074,5.242.074,6.554,0a4.7,4.7,0,0,0,3.328-1.283,4.732,4.732,0,0,0,1.283-3.328c.074-1.312.074-5.239,0-6.55ZM14.064,44.45a2.681,2.681,0,0,1-1.51,1.51c-1.046.415-3.527.319-4.682.319a17.643,17.643,0,0,1-4.682-.319,2.681,2.681,0,0,1-1.51-1.51c-.415-1.046-.319-3.527-.319-4.682a17.643,17.643,0,0,1,.319-4.682,2.681,2.681,0,0,1,1.51-1.51c1.046-.415,3.527-.319,4.682-.319a17.643,17.643,0,0,1,4.682.319,2.681,2.681,0,0,1,1.51,1.51c.415,1.046.319,3.527.319,4.682S14.478,43.408,14.064,44.45Z" transform="translate(0.075 -31.825)" fill="#171b3b"/>
</svg>
