<?xml version="1.0" encoding="UTF-8"?>
<svg id="logo_design" xmlns="http://www.w3.org/2000/svg" width="2183" height="1080" viewBox="0 0 2183 1080">
  <defs>
    <style>
      .cls-1 {
        fill: #ffb201;
      }

      .cls-2 {
        fill: #161f44;
      }

      .cls-3 {
        fill: snow;
      }
    </style>
  </defs>
  <g id="colored">
    <path id="bird" class="cls-2" d="M1606.81,482.59c-57.37-195.04-217.99-265.79-217.99-265.79,0,0-55.45-87.96-141.5-86.05-86.05,1.91-98.48,81.27-98.48,81.27-21.99-2.87-33.46,18.17-33.46,18.17l28.68,7.65s22.95,36.33,21.03,45.89c-1.91,9.56-38.24,120.47,61.19,204.6,86.65,73.32,183.45,34.83,206.91,23.72-27.99-7.62-182.09-55.06-220.3-185.3h1.79s33.59,129.18,222.9,182.67v.46c.62-.33,.96-.51,.96-.51,0,0,154.89,26.77,252.41,126.2s147.24,66.93,147.24,66.93l-231.38-219.9h0Z"/>
    <path id="eyeWing" class="cls-3" d="M1513.7,378.79c-4.08,8.11-9.59,15.35-16.17,21.47-4.31-16.96-19.64-29.53-37.95-29.53-21.65,0-39.2,17.55-39.2,39.2,0,2.1,.21,4.15,.53,6.17-29.28-10.4-50.25-38.34-50.25-71.18,0-26.53,13.68-49.84,34.37-63.32-48.01-30.1-87.8-43.61-87.8-43.61-6.42,280,242.27,231.3,242.27,231.3-9.96-34.36-26.25-64.41-45.8-90.49h0Z"/>
    <ellipse id="eyeOfBird" class="cls-3" cx="1208.12" cy="208.19" rx="9.56" ry="7.65"/>
    <g id="lux">
      <path class="cls-1" d="M1113.63,775.53c-7.31-18.42-28.35,24.57-28.35,24.57,0,0-30.74,62.7-33.94-18.54s64.67-172.03,62.22-190.7c-2.45-18.67-51.64-23.13-57.79-23.13s-33.19,39.34-33.19,39.34c-7.38,20.9-77.45,78.68-153.81,169.07-76.35,90.38-76.09,47.31-64.91-1.34,11.18-48.66,57.66-130.84,92.09-173.87,34.42-43.03-14.75-52.87-43.47-56.04s-31.53,17.93-57.34,43.74-24.59,31.97-24.59,31.97c2.46,12.29,12.29,4.92,12.29,4.92l22.37-19.77s-204.32,332.04-263.33,218.93c-59.01-113.11,48.99-168.22,48.99-168.22,138.74-106.75,232.55-258.39,281.98-328.62,49.43-70.23-16.24-82.22-64.95-99.4s-145.36,85.2-145.36,85.2c-165.18,157.16-181.88,382.7-181.88,382.7l-1.34,8.13s-14.89,9.57-25.03,17.19c-10.14,7.63,0,14.6,0,14.6,20.6,3.79,20.96,25.01,20.96,25.01,2.22,92.73,58.03,110.13,58.03,110.13,109.42,39.34,212.86-107.58,212.86-107.58,0,0-38.28,86.67,42.86,101.43,81.14,14.75,217.73-195.96,217.73-195.96l-16.1,49.66c-29.51,86.06,12.29,121.71,62.9,129.22,50.6,7.51,67.42-54.23,60.12-72.65h-.02Zm-302.31-494.34s31.15-25.11,31.15-9.13-52.97,171.05-314.48,393.19c0,0,119.4-272.89,283.33-384.06h0Z"/>
      <path class="cls-1" d="M1478.7,584.95c23.36,1.23,22.98-11.75,22.98-11.75,3.31-21.58-50.05-28.3-50.05-28.3-33.21,7.9-137.93,117.64-137.93,117.64,0,0-26.8-91.11-58.76-102.18-31.97-11.06-45.49,0-63.93,30.74-18.44,30.74-36.9,45.76-36.9,45.76,0,0-4.9,4.65,1.25,14.48,6.15,9.84,14.98,.39,14.98,.39,0,0,19.44-33.58,36.52-36.52,17.08-2.94,56.69,84.08,55.44,91.98-1.25,7.9-18.94,25.7-18.94,25.7l-73.25,86.88c-116.8,158.6-89.75,215.15-83.6,223.76s14.75-1.23,14.75-1.23c12.29-71.31,25.82-92.21,52.85-143.09,27.03-50.89,131.18-144.69,131.18-144.69,20.52,55.23,59.07,78.43,59.07,78.43,94.68,71.18,131.63,0,131.63,0,13.27-18.79,23.61-82.03,23.65-91.29,.04-9.26-12.83-6.09-12.83-6.09,0,0-3.85,6.79-25.53,57.39-15.88,37.05-42.35,58.23-85.85,2.21-46.46-59.83-44.26-95.9-44.26-95.9,6.15-25.82,147.53-114.34,147.53-114.34v.02Z"/>
    </g>
    <circle id="pupil" class="cls-1" cx="1441.96" cy="354.97" r="22.89"/>
  </g>
</svg>