<?xml version="1.0" encoding="utf-8"?>
<!-- Generator: Adobe Illustrator 26.5.0, SVG Export Plug-In . SVG Version: 6.00 Build 0)  -->
<svg version="1.1" id="logo_design" xmlns="http://www.w3.org/2000/svg" xmlns:xlink="http://www.w3.org/1999/xlink" x="0px"
	 y="0px" viewBox="0 0 1389.7 917.3" style="enable-background:new 0 0 1389.7 917.3;" xml:space="preserve">
<style type="text/css">
	.st0{stroke:#FFFFFF;stroke-miterlimit:10;}
	.st1{fill:#FFFAFA;}
	.st2{fill:#FFFFFF;}
</style>
<path id="bird" class="st0" d="M1157.5,352.4c-57.4-195-218-265.8-218-265.8S884.1-1.4,798,0.5c-86.1,1.9-98.5,81.3-98.5,81.3
	c-22-2.9-33.5,18.2-33.5,18.2l28.7,7.6c0,0,22.9,36.3,21,45.9c-1.9,9.6-38.2,120.5,61.2,204.6c86.7,73.3,183.4,34.8,206.9,23.7
	c-28-7.6-182.1-55.1-220.3-185.3h1.8c0,0,33.6,129.2,222.9,182.7v0.5c0.6-0.3,1-0.5,1-0.5s154.9,26.8,252.4,126.2
	s147.2,66.9,147.2,66.9L1157.5,352.4L1157.5,352.4z"/>
<path id="eyeWing" class="st1" d="M1064.4,248.6c-4.1,8.1-9.6,15.4-16.2,21.5c-4.3-17-19.6-29.5-37.9-29.5
	c-21.7,0-39.2,17.5-39.2,39.2c0,2.1,0.2,4.1,0.5,6.2c-29.3-10.4-50.2-38.3-50.2-71.2c0-26.5,13.7-49.8,34.4-63.3
	c-48-30.1-87.8-43.6-87.8-43.6c-6.4,280,242.3,231.3,242.3,231.3C1100.3,304.7,1084,274.7,1064.4,248.6L1064.4,248.6z"/>
<ellipse id="eyeOfBird" class="st1" cx="758.8" cy="78" rx="9.6" ry="7.6"/>
<g>
	<path class="st0" d="M664.3,645.3c-7.3-18.4-28.3,24.6-28.3,24.6s-30.7,62.7-33.9-18.5s64.7-172,62.2-190.7
		c-2.4-18.7-51.6-23.1-57.8-23.1s-33.2,39.3-33.2,39.3c-7.4,20.9-77.4,78.7-153.8,169.1c-76.3,90.4-76.1,47.3-64.9-1.3
		c11.2-48.7,57.7-130.8,92.1-173.9c34.4-43-14.8-52.9-43.5-56s-31.5,17.9-57.3,43.7c-25.8,25.8-24.6,32-24.6,32
		c2.5,12.3,12.3,4.9,12.3,4.9l22.4-19.8c0,0-204.3,332-263.3,218.9s49-168.2,49-168.2c138.7-106.8,232.6-258.4,282-328.6
		s-16.2-82.2-65-99.4s-145.4,85.2-145.4,85.2C48.1,340.6,31.4,566.1,31.4,566.1l-1.3,8.1c0,0-14.9,9.6-25,17.2
		C-5.1,599.1,5,606,5,606c20.6,3.8,21,25,21,25c2.2,92.7,58,110.1,58,110.1c109.4,39.3,212.9-107.6,212.9-107.6
		s-38.3,86.7,42.9,101.4c81.1,14.8,217.7-196,217.7-196l-16.1,49.7c-29.5,86.1,12.3,121.7,62.9,129.2
		C654.8,725.5,671.7,663.7,664.3,645.3L664.3,645.3z M362,151c0,0,31.2-25.1,31.2-9.1S340.2,312.9,78.7,535
		C78.7,535,198.1,262.1,362,151L362,151z"/>
	<path class="st0" d="M1029.4,454.7c23.4,1.2,23-11.8,23-11.8c3.3-21.6-50.1-28.3-50.1-28.3c-33.2,7.9-137.9,117.6-137.9,117.6
		s-26.8-91.1-58.8-102.2c-32-11.1-45.5,0-63.9,30.7c-18.4,30.7-36.9,45.8-36.9,45.8s-4.9,4.7,1.2,14.5c6.2,9.8,15,0.4,15,0.4
		s19.4-33.6,36.5-36.5c17.1-2.9,56.7,84.1,55.4,92c-1.2,7.9-18.9,25.7-18.9,25.7l-73.2,86.9C604,848.2,631.1,904.7,637.2,913.3
		s14.8-1.2,14.8-1.2c12.3-71.3,25.8-92.2,52.8-143.1c27-50.9,131.2-144.7,131.2-144.7c20.5,55.2,59.1,78.4,59.1,78.4
		c94.7,71.2,131.6,0,131.6,0c13.3-18.8,23.6-82,23.7-91.3c0-9.3-12.8-6.1-12.8-6.1s-3.8,6.8-25.5,57.4c-15.9,37-42.3,58.2-85.8,2.2
		c-46.5-59.8-44.3-95.9-44.3-95.9C888,543.2,1029.4,454.7,1029.4,454.7L1029.4,454.7z"/>
</g>
<circle class="st2" cx="992.7" cy="224.8" r="22.9"/>
</svg>
