<svg xmlns="http://www.w3.org/2000/svg" width="16.128" height="15.885" viewBox="0 0 16.128 15.885">
  <path id="snapchat" d="M29.41,28.618a1.121,1.121,0,0,0-.569-.6c-.046-.027-.088-.048-.124-.065l-.22-.112a4.813,4.813,0,0,1-1.76-1.509,3.419,3.419,0,0,1-.3-.536.254.254,0,0,1-.008-.209.34.34,0,0,1,.1-.1c.13-.086.265-.173.356-.232.162-.105.291-.188.374-.247a2.036,2.036,0,0,0,.665-.707,1.408,1.408,0,0,0,.07-1.169,1.383,1.383,0,0,0-1.339-.879,1.846,1.846,0,0,0-.389.041l-.1.024c.006-.371,0-.762-.035-1.148a4.185,4.185,0,0,0-1.086-2.631,4.326,4.326,0,0,0-1.1-.888,5.266,5.266,0,0,0-5.055,0,4.311,4.311,0,0,0-1.106.89,4.188,4.188,0,0,0-1.086,2.631c-.033.385-.041.779-.036,1.148l-.1-.024a1.843,1.843,0,0,0-.389-.041,1.382,1.382,0,0,0-1.339.879,1.41,1.41,0,0,0,.068,1.171,2.044,2.044,0,0,0,.665.707c.082.058.211.141.374.247.088.057.216.14.342.223a.367.367,0,0,1,.11.11.26.26,0,0,1-.012.219,3.39,3.39,0,0,1-.3.525,4.8,4.8,0,0,1-1.709,1.483c-.389.206-.793.344-.963.807a1.02,1.02,0,0,0,.282,1.083,1.633,1.633,0,0,0,.412.312,4.464,4.464,0,0,0,1.008.4.665.665,0,0,1,.2.091c.119.1.1.261.261.491a1.145,1.145,0,0,0,.3.3,1.958,1.958,0,0,0,1.1.26,4.2,4.2,0,0,1,1.228.182,3.154,3.154,0,0,1,.623.33,4.551,4.551,0,0,0,5.183,0,3.207,3.207,0,0,1,.614-.324,4.183,4.183,0,0,1,1.228-.182,1.958,1.958,0,0,0,1.1-.26,1.149,1.149,0,0,0,.34-.371c.114-.194.111-.33.218-.424a.63.63,0,0,1,.191-.087,4.483,4.483,0,0,0,1.022-.407,1.607,1.607,0,0,0,.433-.339l0,0A1.007,1.007,0,0,0,29.41,28.618Zm-1.13.607c-.689.381-1.148.34-1.5.57-.3.195-.124.615-.344.767-.27.187-1.069-.013-2.1.328-.851.281-1.394,1.091-2.926,1.091s-2.062-.808-2.927-1.093c-1.03-.341-1.831-.141-2.1-.328-.22-.152-.041-.572-.344-.767-.357-.23-.815-.189-1.5-.567-.439-.242-.19-.392-.044-.463A4.894,4.894,0,0,0,17.4,25.548a.441.441,0,0,0-.139-.47c-.178-.165-.97-.655-1.19-.808-.363-.254-.523-.507-.405-.819a.489.489,0,0,1,.494-.3.919.919,0,0,1,.2.022c.4.086.786.286,1.01.34a.357.357,0,0,0,.082.011c.12,0,.162-.06.153-.2a14.59,14.59,0,0,1-.019-2.082,3.3,3.3,0,0,1,.865-2.115A3.862,3.862,0,0,1,21.4,17.906a3.875,3.875,0,0,1,2.955,1.224,3.294,3.294,0,0,1,.865,2.115,14.222,14.222,0,0,1-.019,2.082c-.009.144.034.2.153.2a.354.354,0,0,0,.082-.011c.224-.054.611-.254,1.01-.34a.919.919,0,0,1,.2-.022.489.489,0,0,1,.494.3c.118.312-.041.565-.405.819-.22.153-1.011.643-1.19.808a.441.441,0,0,0-.139.47,4.884,4.884,0,0,0,2.913,3.214C28.47,28.831,28.719,28.981,28.28,29.225Z" transform="translate(-13.339 -17)" fill="#171b3b"/>
</svg>
