<?xml version="1.0" encoding="UTF-8"?>
<svg id="tagline" xmlns="http://www.w3.org/2000/svg" width="2185" height="1050" viewBox="0 0 2185 1050">
  <defs>
    <style>
      .cls-1 {
        fill: #ffb201;
      }

      .cls-2 {
        fill: #161f44;
      }
    </style>
  </defs>
  <g id="a_luxury_website_just_for_you">
    <path class="cls-2" d="M281.56,627.9h-52.4v-2.05c4.73-.48,8.03-1.37,9.89-2.68,3.3-2.32,4.94-5.53,4.94-9.64,0-2.44-.75-5.71-2.23-9.82l-1.36-3.75-7.66-21.06h-35.09l-4.15,12.32-1.99,5.53c-2.39,6.55-3.59,11.69-3.59,15.44,0,2.2,.44,4.25,1.32,6.16,.88,1.91,2.06,3.45,3.55,4.64,2.07,1.61,4.73,2.56,7.98,2.86v2.05h-35.73v-2.05c2.82-.18,5.29-.95,7.42-2.32,2.13-1.37,4.2-3.57,6.22-6.6,1.7-2.44,3.36-5.58,4.98-9.41,1.62-3.84,3.76-9.59,6.42-17.27l29.19-84.15h4.55l34.69,93.79c2.6,7.08,4.68,12.14,6.22,15.17,1.54,3.03,3.22,5.33,5.02,6.87,1.28,1.07,2.74,1.89,4.39,2.45,1.65,.57,4.12,1.06,7.42,1.47v2.05Zm-50.09-52.65l-16.75-46.23-15.79,46.23h32.54Z"/>
    <path class="cls-2" d="M323.75,505.73l22.97-3.21v99.52l.08,6.78c0,4.04,.21,7,.64,8.87,.42,1.87,1.25,3.43,2.47,4.68,1.49,1.61,4.23,2.83,8.21,3.66v1.87h-35.25v-1.87c3.19-.47,5.48-1.14,6.86-2,1.38-.86,2.5-2.33,3.35-4.41,.58-1.37,1-3.43,1.24-6.19,.24-2.76,.36-6.76,.36-11.98v-69.95c0-6.06-.13-10.33-.4-12.83-.27-2.49-.85-4.51-1.75-6.06-.9-1.66-1.99-2.85-3.27-3.56-1.28-.71-3.11-1.16-5.5-1.34v-1.96Z"/>
    <path class="cls-2" d="M419.86,629.51c-.69-3.62-1.04-7.34-1.04-11.14-6.65,7.43-14.52,11.14-23.61,11.14-6.65,0-11.99-1.81-16.03-5.44-3.94-3.57-5.9-8.62-5.9-15.15v-31.02l-.08-6.78c0-4.04-.21-6.98-.64-8.82-.43-1.84-1.22-3.42-2.39-4.72-1.54-1.6-4.31-2.79-8.29-3.56v-1.96h23.45v45.24c0,6.37,.2,11.08,.6,14.14,.4,3.07,1.13,5.58,2.19,7.54,1.17,2.02,2.84,3.61,5.01,4.77,2.17,1.16,4.61,1.74,7.32,1.74,2.97,0,5.76-.65,8.35-1.96,2.6-1.31,4.64-3.09,6.13-5.35,1.54-2.32,2.56-4.99,3.06-8.02,.5-3.03,.76-8.02,.76-14.97v-17.47l-.08-6.6c0-4.04-.2-6.98-.6-8.82-.4-1.84-1.21-3.42-2.43-4.72-1.49-1.6-4.25-2.79-8.29-3.56v-1.96h23.45v48.4c0,6.12,.15,10.41,.44,12.88,.29,2.46,.86,4.47,1.71,6.01,.96,1.67,2.07,2.87,3.35,3.61,1.28,.74,3.11,1.2,5.5,1.38v1.87l-21.93,3.3Z"/>
    <path class="cls-2" d="M447.06,552.05h31.1v1.96c-1.86,.3-3.31,.93-4.35,1.91-1.04,.98-1.56,2.24-1.56,3.78,0,1.07,.25,2.24,.75,3.51,.5,1.28,1.54,3.37,3.13,6.27l1.98,3.65,4.83,8.9,9.57-13.61c1.81-2.49,3.02-4.36,3.63-5.6,.61-1.25,.92-2.46,.92-3.65,0-2.91-1.52-4.62-4.55-5.16v-1.96h21.06v1.96c-3.24,.77-6.23,2.31-8.97,4.63-2.74,2.31-5.76,5.78-9.05,10.41l-10.93,15.48,16.11,28.14c2.5,4.33,4.81,7.54,6.94,9.62,1.28,1.19,2.43,2.03,3.47,2.54,1.04,.5,2.38,.91,4.03,1.2v1.87h-32.06v-1.87c1.91-.36,3.27-.74,4.07-1.16,1.6-.95,2.39-2.31,2.39-4.09s-.98-4.33-2.93-7.65l-1.74-3.02-8.16-14.33-10.53,14.5c-1.86,2.55-3.11,4.46-3.75,5.74-.64,1.28-.96,2.51-.96,3.69,0,3.26,2.21,5.37,6.62,6.32v1.87h-22.41v-1.87c1.49-.3,2.72-.68,3.71-1.16,.98-.47,2.11-1.25,3.39-2.31,2.18-1.9,4.95-5.19,8.29-9.88l14.2-19.67-14.91-25.2c-2.98-4.99-5.28-8.32-6.9-10.02-1.62-1.69-3.76-2.95-6.42-3.78v-1.96Z"/>
    <path class="cls-2" d="M576.26,629.51c-.69-3.62-1.04-7.34-1.04-11.14-6.65,7.43-14.52,11.14-23.61,11.14-6.65,0-11.99-1.81-16.03-5.44-3.94-3.57-5.9-8.62-5.9-15.15v-31.02l-.08-6.78c0-4.04-.21-6.98-.64-8.82-.43-1.84-1.22-3.42-2.39-4.72-1.54-1.6-4.31-2.79-8.29-3.56v-1.96h23.45v45.24c0,6.37,.2,11.08,.6,14.14,.4,3.07,1.13,5.58,2.19,7.54,1.17,2.02,2.84,3.61,5.01,4.77,2.17,1.16,4.61,1.74,7.32,1.74,2.97,0,5.76-.65,8.35-1.96,2.6-1.31,4.64-3.09,6.13-5.35,1.54-2.32,2.56-4.99,3.06-8.02,.5-3.03,.76-8.02,.76-14.97v-17.47l-.08-6.6c0-4.04-.2-6.98-.6-8.82-.4-1.84-1.21-3.42-2.43-4.72-1.49-1.6-4.25-2.79-8.29-3.56v-1.96h23.45v48.4c0,6.12,.15,10.41,.44,12.88,.29,2.46,.86,4.47,1.71,6.01,.96,1.67,2.07,2.87,3.35,3.61,1.28,.74,3.11,1.2,5.5,1.38v1.87l-21.93,3.3Z"/>
    <path class="cls-2" d="M625.24,564.44c1.91-3.75,4.07-6.57,6.46-8.47,4.41-3.51,9.44-5.26,15.07-5.26,3.46,0,6.09,.86,7.9,2.59,1.65,1.54,2.47,3.45,2.47,5.71,0,1.66-.49,3.03-1.48,4.1-.98,1.07-2.25,1.61-3.79,1.61-1.81,0-3.38-.83-4.71-2.5l-2.47-3.03c-1.97-2.32-4.28-3.48-6.94-3.48-3.62,0-6.43,2.61-8.45,7.84-2.02,5.23-3.03,12.51-3.03,21.84v16.67l.08,6.77c0,4.04,.21,7,.64,8.87,.42,1.87,1.25,3.43,2.47,4.68,1.49,1.6,4.23,2.82,8.21,3.65v1.87h-35.25v-1.87c3.19-.47,5.48-1.14,6.86-2,1.38-.86,2.5-2.32,3.35-4.4,.58-1.36,1-3.42,1.24-6.17,.24-2.75,.36-6.73,.36-11.94v-21.93c0-6.1-.13-10.37-.4-12.83-.27-2.46-.85-4.45-1.75-5.99-.9-1.66-1.99-2.86-3.27-3.6-1.28-.74-3.11-1.2-5.5-1.38v-1.87l20.56-3.21c.91,5.34,1.37,9.92,1.37,13.73Z"/>
    <path class="cls-2" d="M656.82,552.05h30.95v1.96c-2.18,.36-3.75,.83-4.71,1.42-2.07,1.31-3.11,3.33-3.11,6.06,0,2.38,1.08,6.62,3.25,12.74l13.34,38.22,11.64-32.17c2.87-8.02,4.31-13.69,4.31-17.02,0-2.67-.67-4.8-1.99-6.37-1.33-1.57-3.27-2.54-5.82-2.9v-1.96h22.81v1.96c-2.29,.71-3.98,1.46-5.06,2.23-1.09,.77-2.14,1.99-3.15,3.66-1.54,2.62-3.99,8.48-7.34,17.58l-23.13,62.82c-2.77,7.5-5,12.37-6.7,14.63-2.87,3.75-6.51,5.62-10.93,5.62-2.82,0-5.09-.61-6.82-1.83-1.73-1.22-2.59-2.81-2.59-4.77,0-1.55,.5-2.78,1.51-3.7,1.01-.92,2.33-1.38,3.98-1.38,1.38,0,2.97,.42,4.77,1.25,1.75,.77,2.88,1.25,3.38,1.43,.5,.18,1.1,.27,1.79,.27,3.29,0,5.96-2.78,8.03-8.33l2.47-6.81c1.06-2.87,1.59-5.08,1.59-6.63,0-2.2-1.01-6.03-3.02-11.5l-16.53-44.48-2.38-6.42c-1.44-3.8-2.55-6.51-3.35-8.11-.8-1.6-1.6-2.76-2.39-3.48-1.33-1.13-2.93-1.81-4.79-2.05v-1.96Z"/>
    <path class="cls-2" d="M764.73,552.05h31.03v1.96c-5.96,.36-8.93,2.94-8.93,7.75,0,2.38,1.06,7.31,3.17,14.79l9.67,33.23,13.59-40.18c1.07-3.09,1.6-5.58,1.6-7.48,0-5.11-2.77-7.81-8.29-8.11v-1.96h30.55v1.96c-2.61,.42-4.44,1.04-5.5,1.87-1.7,1.31-2.55,3.27-2.55,5.88,0,2.08,.5,5.02,1.51,8.82l10.49,39.2,12.38-35.28c1.59-4.57,2.38-8.05,2.38-10.42,0-3.21-1-5.67-3-7.39-1-.95-2.82-1.84-5.45-2.67v-1.96h23.45v1.96c-2.29,0-4.33,.83-6.14,2.5-1.17,1.01-2.27,2.54-3.31,4.59-1.04,2.05-2.27,5.12-3.71,9.22l-1.68,4.55-18.98,53.03h-2.79l-17.43-59.61-21.02,59.61h-2.71l-15.94-54.01-1.92-6.51c-1.75-5.88-3.56-9.6-5.42-11.14-1.06-.95-2.74-1.69-5.02-2.23v-1.96Z"/>
    <path class="cls-2" d="M885.48,579.35c-.21,2.92-.32,5.03-.32,6.34,0,5.18,.68,10.23,2.03,15.17,1.35,4.94,3.19,9.04,5.52,12.31,2.39,3.33,5.34,5.95,8.86,7.85,3.52,1.9,7.22,2.86,11.09,2.86,2.86,0,5.58-.54,8.15-1.61,2.57-1.07,4.7-2.56,6.4-4.46,1.91-2.08,3.55-5.41,4.93-9.99l1.67,.62c-1.38,6.96-4.35,12.21-8.89,15.75-4.55,3.54-10.6,5.31-18.15,5.31-6.54,0-12.15-1.16-16.83-3.48-4.68-2.32-8.64-5.89-11.88-10.71-4.52-6.72-6.78-14.99-6.78-24.81,0-13.39,4.28-23.88,12.84-31.5,6.22-5.53,13.32-8.3,21.29-8.3,4.25,0,8.19,.85,11.8,2.54,3.62,1.7,6.67,4.15,9.17,7.36,3.88,5,5.82,11.24,5.82,18.74h-46.74Zm34.77-3.48c-.37-5.95-1.35-10.53-2.94-13.74-1.43-2.91-3.33-5.22-5.72-6.92-2.38-1.7-4.92-2.54-7.62-2.54-4.55,0-8.54,2.2-11.95,6.6-3.41,4.4-5.44,9.94-6.07,16.6h34.3Z"/>
    <path class="cls-2" d="M965.56,561.94c2.23-3.09,4.35-5.38,6.37-6.87,4.09-2.91,8.97-4.37,14.65-4.37,8.07,0,15.1,2.88,21.1,8.65,7.43,7.07,11.15,17.06,11.15,29.95s-3.56,23.06-10.69,30.48c-6.17,6.48-14.06,9.72-23.69,9.72-5.05,0-9.33-.77-12.84-2.32l-4.47-2.05c-1.22-.54-2.31-.8-3.27-.8-2.71,0-5.1,2.47-7.18,7.4h-3.19v-104.68c0-6.66-.94-11.44-2.83-14.32-1.89-2.88-5.06-4.33-9.53-4.33v-2.14l24.41-3.75v59.42Zm0,27.01c0,6.36,.32,12.21,.95,17.56,.64,5.35,1.46,9.24,2.46,11.68,1.22,2.91,3.03,5.2,5.44,6.86,2.41,1.67,5.15,2.5,8.22,2.5,6.46,0,11.79-3.45,16-10.34,4.21-6.89,6.32-15.66,6.32-26.29,0-5.59-.69-10.89-2.07-15.91-1.38-5.02-3.34-9.29-5.88-12.79-2.01-2.91-4.24-5.12-6.67-6.64-2.44-1.51-4.92-2.27-7.47-2.27-3.07,0-5.93,1.06-8.58,3.17-2.65,2.11-4.61,4.86-5.88,8.24-1.91,4.99-2.86,13.07-2.86,24.24Z"/>
    <path class="cls-2" d="M1031.36,627.9v-25.25h1.28c1.49,6.19,3.34,11.12,5.57,14.81,4.08,6.72,8.86,10.08,14.32,10.08,3.34,0,6.23-1.13,8.67-3.39,2.65-2.5,3.98-6.04,3.98-10.62,0-3.75-.96-7.02-2.86-9.82-1.06-1.49-2.4-2.86-4.02-4.1-1.62-1.25-4.34-3-8.16-5.27-6.68-3.98-11.14-7.32-13.37-9.99-3.18-3.81-4.77-8.21-4.77-13.21,0-5.35,1.59-9.96,4.79-13.83,3.67-4.4,8.53-6.6,14.6-6.6,2.71,0,5.24,.54,7.58,1.61l2.71,1.34c.85,.36,1.6,.54,2.23,.54,1.01,0,1.97-.89,2.87-2.68h1.6l.88,20.26h-1.67c-.58-2.86-1.21-5.14-1.87-6.87-.66-1.72-1.6-3.39-2.82-5-1.64-2.26-3.55-4.03-5.73-5.31-2.17-1.28-4.32-1.92-6.44-1.92-2.97,0-5.5,1.2-7.6,3.61-2.09,2.41-3.14,5.37-3.14,8.88,0,2.92,.94,5.55,2.83,7.9,1.88,2.35,4.79,4.51,8.71,6.47l8.43,4.28c5.04,2.56,8.81,5.74,11.3,9.55,2.49,3.81,3.74,8.3,3.74,13.47,0,6.25-1.81,11.42-5.42,15.53-4.15,4.76-9.46,7.14-15.95,7.14-3.51,0-7.07-.77-10.69-2.32-2.34-1.01-3.75-1.59-4.23-1.74-.48-.15-1.09-.22-1.83-.22-1.86,0-3.27,.89-4.23,2.68h-1.28Z"/>
    <path class="cls-2" d="M1084.48,553.92l22.97-3.21v51.4l.08,6.76c0,4.03,.21,6.98,.64,8.85,.42,1.87,1.25,3.42,2.47,4.67,1.49,1.6,4.23,2.82,8.21,3.65v1.87h-35.25v-1.87c3.19-.47,5.48-1.14,6.86-2,1.38-.86,2.5-2.32,3.35-4.4,.58-1.36,1-3.42,1.24-6.17,.24-2.75,.36-6.73,.36-11.94v-21.93c0-6.1-.13-10.37-.4-12.83-.27-2.46-.85-4.45-1.75-5.99-.9-1.66-1.99-2.86-3.27-3.6-1.28-.74-3.11-1.2-5.5-1.38v-1.87Zm16.63-35.25c-2.09,0-3.81-.74-5.17-2.23-1.36-1.49-2.04-3.36-2.04-5.62s.69-4.06,2.08-5.58c1.39-1.52,3.1-2.28,5.13-2.28s3.74,.76,5.13,2.28c1.39,1.52,2.08,3.38,2.08,5.58s-.68,4.14-2.04,5.62c-1.36,1.49-3.09,2.23-5.17,2.23Z"/>
    <path class="cls-2" d="M1143.81,552.05h20.26v3.39h-20.26v51.94c0,6.25,.95,10.71,2.86,13.39,1.01,1.49,2.33,2.65,3.97,3.48,1.64,.83,3.42,1.25,5.33,1.25,2.38,0,4.37-.55,5.96-1.65,1.59-1.1,3.34-3.11,5.25-6.02l1.19,1.16c-1.75,3.57-4.21,6.22-7.38,7.94-3.16,1.72-7.11,2.59-11.84,2.59-6.27,0-10.85-1.37-13.72-4.11-1.54-1.43-2.55-3.14-3.03-5.13-.48-1.99-.72-5.58-.72-10.75v-54.08h-8.53v-1.43c3.46-1.25,6.65-3.66,9.58-7.23,1.76-2.2,3.18-4.39,4.25-6.56,1.07-2.17,2.09-4.98,3.05-8.43l.8-2.95h2.97v23.2Z"/>
    <path class="cls-2" d="M1182.42,579.35c-.21,2.92-.32,5.03-.32,6.34,0,5.18,.67,10.23,2.03,15.17,1.35,4.94,3.19,9.04,5.52,12.31,2.38,3.33,5.34,5.95,8.86,7.85,3.52,1.9,7.22,2.86,11.09,2.86,2.86,0,5.58-.54,8.15-1.61,2.57-1.07,4.7-2.56,6.4-4.46,1.91-2.08,3.55-5.41,4.93-9.99l1.67,.62c-1.38,6.96-4.35,12.21-8.89,15.75-4.55,3.54-10.6,5.31-18.14,5.31-6.54,0-12.15-1.16-16.83-3.48-4.68-2.32-8.64-5.89-11.88-10.71-4.52-6.72-6.78-14.99-6.78-24.81,0-13.39,4.28-23.88,12.84-31.5,6.22-5.53,13.32-8.3,21.29-8.3,4.25,0,8.19,.85,11.8,2.54,3.62,1.7,6.67,4.15,9.17,7.36,3.88,5,5.82,11.24,5.82,18.74h-46.74Zm34.77-3.48c-.37-5.95-1.35-10.53-2.94-13.74-1.43-2.91-3.33-5.22-5.72-6.92-2.38-1.7-4.92-2.54-7.62-2.54-4.55,0-8.54,2.2-11.95,6.6-3.42,4.4-5.44,9.94-6.07,16.6h34.3Z"/>
    <path class="cls-2" d="M1302.85,550.71v67.71c0,7.84-.03,12.59-.08,14.26-.32,6.18-1.36,11.17-3.12,14.97-3.73,7.96-10.44,11.94-20.14,11.94-5.17,0-9.28-1.01-12.35-3.03-3.06-2.02-4.59-4.73-4.59-8.12,0-1.84,.45-3.36,1.36-4.55,.91-1.19,2.07-1.79,3.51-1.79,2.55,0,4.28,1.73,5.18,5.18l1.12,4.28c1.12,4.04,3.48,6.07,7.1,6.07,1.86,0,3.52-.55,4.98-1.65,1.46-1.1,2.56-2.69,3.31-4.77,.58-1.54,1.01-3.95,1.28-7.22,.27-3.27,.4-7.63,.4-13.09v-55.59c0-6.71-.94-11.5-2.83-14.39-1.89-2.88-5.06-4.32-9.53-4.32v-2.23l24.41-3.66Zm-6.34-32.04c-2.09,0-3.82-.74-5.21-2.23-1.39-1.49-2.08-3.36-2.08-5.62s.71-4.06,2.12-5.58c1.42-1.52,3.14-2.28,5.17-2.28s3.74,.76,5.13,2.28c1.39,1.52,2.08,3.38,2.08,5.58s-.68,4.14-2.04,5.62c-1.36,1.49-3.09,2.23-5.17,2.23Z"/>
    <path class="cls-2" d="M1371.92,629.51c-.69-3.62-1.04-7.34-1.04-11.14-6.65,7.43-14.52,11.14-23.61,11.14-6.65,0-11.99-1.81-16.03-5.44-3.94-3.57-5.9-8.62-5.9-15.15v-31.02l-.08-6.78c0-4.04-.21-6.98-.64-8.82-.43-1.84-1.22-3.42-2.39-4.72-1.54-1.6-4.31-2.79-8.29-3.56v-1.96h23.45v45.24c0,6.37,.2,11.08,.6,14.14,.4,3.07,1.13,5.58,2.19,7.54,1.17,2.02,2.84,3.61,5.01,4.77,2.17,1.16,4.62,1.74,7.32,1.74,2.97,0,5.75-.65,8.35-1.96,2.6-1.31,4.64-3.09,6.13-5.35,1.54-2.32,2.56-4.99,3.06-8.02,.5-3.03,.76-8.02,.76-14.97v-17.47l-.08-6.6c0-4.04-.2-6.98-.6-8.82-.4-1.84-1.21-3.42-2.43-4.72-1.49-1.6-4.25-2.79-8.29-3.56v-1.96h23.45v48.4c0,6.12,.15,10.41,.44,12.88,.29,2.46,.86,4.47,1.71,6.01,.96,1.67,2.07,2.87,3.35,3.61,1.28,.74,3.11,1.2,5.5,1.38v1.87l-21.93,3.3Z"/>
    <path class="cls-2" d="M1403.58,627.9v-25.25h1.28c1.49,6.19,3.34,11.12,5.57,14.81,4.08,6.72,8.86,10.08,14.32,10.08,3.34,0,6.23-1.13,8.67-3.39,2.65-2.5,3.98-6.04,3.98-10.62,0-3.75-.96-7.02-2.86-9.82-1.06-1.49-2.4-2.86-4.02-4.1-1.62-1.25-4.34-3-8.16-5.27-6.68-3.98-11.14-7.32-13.37-9.99-3.18-3.81-4.77-8.21-4.77-13.21,0-5.35,1.59-9.96,4.79-13.83,3.67-4.4,8.53-6.6,14.6-6.6,2.71,0,5.24,.54,7.58,1.61l2.71,1.34c.85,.36,1.6,.54,2.23,.54,1.01,0,1.97-.89,2.87-2.68h1.6l.88,20.26h-1.67c-.58-2.86-1.21-5.14-1.87-6.87-.66-1.72-1.6-3.39-2.82-5-1.64-2.26-3.55-4.03-5.73-5.31-2.17-1.28-4.32-1.92-6.44-1.92-2.97,0-5.5,1.2-7.6,3.61-2.09,2.41-3.14,5.37-3.14,8.88,0,2.92,.94,5.55,2.83,7.9,1.88,2.35,4.79,4.51,8.71,6.47l8.43,4.28c5.04,2.56,8.81,5.74,11.3,9.55,2.49,3.81,3.74,8.3,3.74,13.47,0,6.25-1.81,11.42-5.42,15.53-4.15,4.76-9.46,7.14-15.95,7.14-3.51,0-7.07-.77-10.69-2.32-2.34-1.01-3.75-1.59-4.23-1.74-.48-.15-1.09-.22-1.83-.22-1.86,0-3.27,.89-4.23,2.68h-1.28Z"/>
    <path class="cls-2" d="M1476.48,552.05h20.26v3.39h-20.26v51.94c0,6.25,.95,10.71,2.86,13.39,1.01,1.49,2.33,2.65,3.97,3.48,1.64,.83,3.42,1.25,5.33,1.25,2.38,0,4.37-.55,5.96-1.65,1.59-1.1,3.34-3.11,5.25-6.02l1.19,1.16c-1.75,3.57-4.21,6.22-7.38,7.94-3.16,1.72-7.11,2.59-11.84,2.59-6.27,0-10.85-1.37-13.72-4.11-1.54-1.43-2.55-3.14-3.03-5.13-.48-1.99-.72-5.58-.72-10.75v-54.08h-8.53v-1.43c3.46-1.25,6.65-3.66,9.58-7.23,1.76-2.2,3.18-4.39,4.25-6.56,1.07-2.17,2.09-4.98,3.05-8.43l.8-2.95h2.97v23.2Z"/>
    <path class="cls-2" d="M1562.86,555.44v46.61l.08,6.77c0,4.04,.21,7,.64,8.87,.42,1.87,1.25,3.43,2.47,4.68,1.49,1.6,4.23,2.82,8.21,3.65v1.87h-35.25v-1.87c3.19-.47,5.48-1.14,6.86-2,1.38-.86,2.5-2.33,3.35-4.41,.58-1.37,1-3.43,1.24-6.19s.36-6.76,.36-11.99v-45.99h-11.56v-3.39h11.56v-21.77c0-5.23,.6-9.37,1.81-12.4,1.2-3.03,3.36-5.83,6.46-8.39,2.78-2.26,6.18-4.03,10.19-5.31,4.01-1.28,8.25-1.92,12.72-1.92,4.15,0,7.47,.8,9.97,2.41,2.5,1.61,3.75,3.75,3.75,6.42,0,1.78-.52,3.27-1.55,4.46-1.04,1.19-2.3,1.78-3.79,1.78s-2.69-.43-3.75-1.29c-1.06-.86-2.13-2.28-3.19-4.24-1.49-2.74-2.71-4.54-3.67-5.4-.96-.86-2.26-1.29-3.91-1.29-2.02,0-3.94,.46-5.74,1.38-1.81,.92-3.22,2.13-4.23,3.61-1.12,1.67-1.89,3.85-2.31,6.56-.43,2.71-.64,6.62-.64,11.74v23.65h15.71v3.39h-15.79Z"/>
    <path class="cls-2" d="M1587.42,590.24c0-9.64,3.19-18.23,9.57-25.79,7.76-9.16,17.04-13.74,27.84-13.74s20.04,4.58,27.75,13.74c6.38,7.62,9.57,16.24,9.57,25.88s-3.03,18-9.09,25.43c-7.44,9.16-16.86,13.74-28.23,13.74s-20.82-4.58-28.31-13.74c-2.92-3.57-5.17-7.55-6.74-11.96-1.57-4.4-2.35-8.92-2.35-13.56Zm14.52-1.03c0,10.34,2.07,19.1,6.22,26.29,4.68,8.02,10.39,12.03,17.15,12.03,2.87,0,5.66-.89,8.37-2.67,2.71-1.78,5.05-4.28,7.02-7.49,2.07-3.33,3.75-7.5,5.03-12.52,1.28-5.02,1.91-9.88,1.91-14.57s-.68-9.79-2.03-14.75c-1.36-4.96-3.18-9.23-5.46-12.79-4.36-6.71-9.71-10.07-16.03-10.07s-11.19,3.54-15.55,10.61c-4.41,7.07-6.62,15.72-6.62,25.94Z"/>
    <path class="cls-2" d="M1692.06,564.44c1.91-3.75,4.07-6.57,6.46-8.47,4.41-3.51,9.44-5.26,15.07-5.26,3.46,0,6.09,.86,7.9,2.59,1.65,1.54,2.47,3.45,2.47,5.71,0,1.66-.49,3.03-1.47,4.1-.99,1.07-2.25,1.61-3.79,1.61-1.81,0-3.38-.83-4.71-2.5l-2.47-3.03c-1.97-2.32-4.28-3.48-6.94-3.48-3.62,0-6.43,2.61-8.45,7.84-2.02,5.23-3.03,12.51-3.03,21.84v16.67l.08,6.77c0,4.04,.21,7,.64,8.87,.42,1.87,1.25,3.43,2.47,4.68,1.49,1.6,4.23,2.82,8.21,3.65v1.87h-35.25v-1.87c3.19-.47,5.48-1.14,6.86-2,1.38-.86,2.5-2.32,3.35-4.4,.58-1.36,1-3.42,1.24-6.17,.24-2.75,.36-6.73,.36-11.94v-21.93c0-6.1-.13-10.37-.4-12.83-.27-2.46-.85-4.45-1.75-5.99-.9-1.66-1.99-2.86-3.27-3.6-1.28-.74-3.11-1.2-5.5-1.38v-1.87l20.56-3.21c.92,5.34,1.37,9.92,1.37,13.73Z"/>
    <path class="cls-2" d="M1764.48,552.05h30.95v1.96c-2.18,.36-3.75,.83-4.71,1.42-2.07,1.31-3.11,3.33-3.11,6.06,0,2.38,1.08,6.62,3.25,12.74l13.33,38.22,11.64-32.17c2.87-8.02,4.31-13.69,4.31-17.02,0-2.67-.67-4.8-1.99-6.37-1.33-1.57-3.27-2.54-5.82-2.9v-1.96h22.81v1.96c-2.29,.71-3.98,1.46-5.07,2.23-1.09,.77-2.14,1.99-3.15,3.66-1.54,2.62-3.99,8.48-7.34,17.58l-23.13,62.82c-2.77,7.5-5,12.37-6.7,14.63-2.87,3.75-6.51,5.62-10.93,5.62-2.82,0-5.09-.61-6.82-1.83-1.73-1.22-2.59-2.81-2.59-4.77,0-1.55,.5-2.78,1.51-3.7,1.01-.92,2.33-1.38,3.98-1.38,1.38,0,2.97,.42,4.77,1.25,1.75,.77,2.88,1.25,3.38,1.43,.5,.18,1.1,.27,1.79,.27,3.29,0,5.96-2.78,8.03-8.33l2.47-6.81c1.06-2.87,1.59-5.08,1.59-6.63,0-2.2-1.01-6.03-3.02-11.5l-16.53-44.48-2.38-6.42c-1.44-3.8-2.55-6.51-3.35-8.11-.8-1.6-1.59-2.76-2.39-3.48-1.33-1.13-2.92-1.81-4.79-2.05v-1.96Z"/>
    <path class="cls-2" d="M1837.86,590.24c0-9.64,3.19-18.23,9.57-25.79,7.76-9.16,17.04-13.74,27.84-13.74s20.04,4.58,27.75,13.74c6.38,7.62,9.57,16.24,9.57,25.88s-3.03,18-9.09,25.43c-7.44,9.16-16.86,13.74-28.23,13.74s-20.82-4.58-28.31-13.74c-2.92-3.57-5.17-7.55-6.74-11.96-1.57-4.4-2.35-8.92-2.35-13.56Zm14.52-1.03c0,10.34,2.07,19.1,6.22,26.29,4.68,8.02,10.39,12.03,17.15,12.03,2.87,0,5.66-.89,8.37-2.67,2.71-1.78,5.05-4.28,7.02-7.49,2.07-3.33,3.75-7.5,5.03-12.52,1.28-5.02,1.91-9.88,1.91-14.57s-.68-9.79-2.03-14.75c-1.36-4.96-3.18-9.23-5.46-12.79-4.36-6.71-9.71-10.07-16.03-10.07s-11.19,3.54-15.55,10.61c-4.41,7.07-6.62,15.72-6.62,25.94Z"/>
    <path class="cls-2" d="M1977.12,629.51c-.69-3.62-1.04-7.34-1.04-11.14-6.65,7.43-14.52,11.14-23.61,11.14-6.65,0-11.99-1.81-16.03-5.44-3.94-3.57-5.9-8.62-5.9-15.15v-31.02l-.08-6.78c0-4.04-.21-6.98-.64-8.82-.43-1.84-1.22-3.42-2.39-4.72-1.54-1.6-4.31-2.79-8.29-3.56v-1.96h23.45v45.24c0,6.37,.2,11.08,.6,14.14,.4,3.07,1.13,5.58,2.19,7.54,1.17,2.02,2.84,3.61,5.01,4.77,2.17,1.16,4.62,1.74,7.32,1.74,2.97,0,5.75-.65,8.35-1.96,2.6-1.31,4.64-3.09,6.13-5.35,1.54-2.32,2.56-4.99,3.06-8.02,.5-3.03,.76-8.02,.76-14.97v-17.47l-.08-6.6c0-4.04-.2-6.98-.6-8.82-.4-1.84-1.21-3.42-2.43-4.72-1.49-1.6-4.25-2.79-8.29-3.56v-1.96h23.45v48.4c0,6.12,.15,10.41,.44,12.88,.29,2.46,.86,4.47,1.71,6.01,.96,1.67,2.07,2.87,3.35,3.61,1.28,.74,3.11,1.2,5.5,1.38v1.87l-21.93,3.3Z"/>
    <path class="cls-2" d="M2021.06,607.82c2.66,0,4.93,1.06,6.82,3.17,1.89,2.11,2.83,4.68,2.83,7.72s-.94,5.52-2.83,7.63c-1.89,2.11-4.16,3.17-6.82,3.17s-4.93-1.06-6.82-3.17c-1.89-2.11-2.83-4.65-2.83-7.63s.94-5.61,2.83-7.72c1.89-2.11,4.16-3.17,6.82-3.17Z"/>
  </g>
  <path id="crown" class="cls-1" d="M2114.33,492.83c-4.28-1.92-9.31,0-11.23,4.29-.95,2.12-.96,4.42-.2,6.44-9.86,2.45-24.75,4.37-31.19-3.89,0,0-5-6.11,4.24-24.05,.21,.11,.42,.22,.63,.32,4.28,1.92,9.31,0,11.23-4.29,1.92-4.28,0-9.31-4.29-11.23s-9.31,0-11.23,4.29c-1.25,2.8-.87,5.92,.75,8.28-8.16,3.69-22.31,9.02-27.28,4.21-6.72-6.5-4.35-15.53-.13-43.19,2.82-.38,5.38-2.17,6.62-4.95,1.92-4.28,0-9.31-4.29-11.23s-9.31,0-11.23,4.29c-1.64,3.67-.47,7.88,2.59,10.22-7.69,11.41-22.43,30.79-32.85,28.99-13.1-2.26-12.78-20.74-12.56-24.71,1.92-.81,3.55-2.31,4.46-4.36,1.92-4.28,0-9.31-4.29-11.23s-9.31,0-11.23,4.29,0,9.31,4.29,11.23c.04,.02,.09,.04,.14,.06-3.32,8.35-8.38,19.23-12.46,19.87-6.66,1.05-15.23-1.24-23.7-18.89,1.09-.83,1.99-1.94,2.59-3.28,1.92-4.28,0-9.31-4.29-11.23-4.28-1.92-9.31,0-11.23,4.29s0,9.31,4.29,11.23c.92,.41,1.87,.65,2.82,.72,.17,2.44,.44,4.47,.44,4.47l-1.44,72.58s59.68,10.87,103.76,45.49l57.44-54.67c.56,.45,1.19,.84,1.88,1.15,4.28,1.92,9.31,0,11.23-4.29,1.92-4.28,0-9.31-4.29-11.23Z"/>
  <path id="crown_bottom" class="cls-1" d="M1942.6,519.58s62.61,13.13,103.74,45.42l-1.11,2.48s-24.87-22.05-102.54-45.88l-.09-2.02Z"/>
</svg>